<svg width="54" height="54" viewBox="0 0 54 54" fill="none" xmlns="http://www.w3.org/2000/svg">
<path d="M50.3174 44.1819H41.7266C36.3131 44.1819 31.9086 39.7775 31.9086 34.3639C31.9086 28.9503 36.3131 24.5459 41.7266 24.5459H50.3174C50.4786 24.546 50.6383 24.5144 50.7872 24.4527C50.9362 24.3911 51.0715 24.3007 51.1855 24.1867C51.2995 24.0727 51.3899 23.9374 51.4515 23.7884C51.5132 23.6395 51.5448 23.4798 51.5447 23.3186V19.6369C51.5447 17.0633 49.5485 14.9704 47.0264 14.7674L39.9781 2.45653C39.325 1.31795 38.2703 0.504163 37.0082 0.166247C35.7522 -0.169368 34.4387 0.00689583 33.3145 0.661213L9.15262 14.7278H4.90905C2.20169 14.7278 0 16.9294 0 19.6369V49.0909C0 51.7983 2.20158 54 4.90905 54H46.6357C49.343 54 51.5447 51.7984 51.5447 49.0909V45.4092C51.5448 45.248 51.5132 45.0883 51.4515 44.9394C51.3899 44.7904 51.2995 44.6551 51.1855 44.5411C51.0715 44.4271 50.9362 44.3367 50.7872 44.2751C50.6383 44.2135 50.4786 44.1818 50.3174 44.1819ZM41.5002 10.0571L44.1743 14.7278H33.4775L41.5002 10.0571ZM14.0309 14.7278L34.5501 2.78248C35.105 2.45768 35.7533 2.37139 36.373 2.53684C36.9998 2.70459 37.5224 3.1097 37.8472 3.67657L37.8497 3.68106L18.876 14.7278H14.0309Z" fill="#0177FC"/>
<path d="M50.3176 27.0004H41.7268C37.6663 27.0004 34.3633 30.3034 34.3633 34.3639C34.3633 38.4244 37.6663 41.7274 41.7268 41.7274H50.3176C52.3479 41.7274 53.9994 40.0759 53.9994 38.0456V30.6821C53.9994 28.6519 52.3479 27.0004 50.3176 27.0004ZM41.7268 36.8183C40.3738 36.8183 39.2723 35.7169 39.2723 34.3639C39.2723 33.0108 40.3738 31.9094 41.7268 31.9094C43.0798 31.9094 44.1813 33.0108 44.1813 34.3639C44.1814 35.7169 43.08 36.8183 41.7268 36.8183Z" fill="#0177FC"/>
</svg>
