<svg width="25" height="24" viewBox="0 0 25 24" fill="none" xmlns="http://www.w3.org/2000/svg">
<path d="M23.4146 19.2456C23.2982 19.5648 22.4282 20.448 16.1798 18.192L10.0538 15.9804C7.92143 15.2112 4.92023 14.0016 3.74423 13.32C2.92103 12.8436 2.74103 11.7816 2.74103 11.7816C2.74103 11.7816 2.54543 8.23441 2.42543 7.36081C2.30543 6.48721 2.53943 6.33721 3.38063 6.77041C3.90383 7.04041 5.61863 9.84481 6.33743 11.0508C8.15183 11.508 9.77183 11.964 10.529 12.1896C10.2206 10.1292 9.64103 6.27601 9.43343 5.07001C9.23423 3.91441 10.0934 4.42801 10.0934 4.42801C10.4906 4.65601 11.273 5.22121 11.5406 5.63041C13.367 8.42161 15.947 13.5504 16.1438 13.944C17.219 14.28 18.8762 14.8236 19.8662 15.18C22.4534 16.1148 23.5706 18.8208 23.4146 19.2456Z" fill="#A9A3B9"/>
</svg>
