<svg width="688" height="392" viewBox="0 0 688 392" fill="none" xmlns="http://www.w3.org/2000/svg">
<g filter="url(#filter0_d_2134_376)">
<path d="M297.54 342C20.4064 276.941 22.9556 202.203 24.1803 194.89C25.4051 187.578 20.4064 111.059 297.54 46L663 46V342L297.54 342Z" fill="white"/>
</g>
<path d="M301.219 331C62.2351 267.58 55.0049 207.362 55.0049 194.701C55.0049 182.04 62.2351 120.212 301.219 57L663 57V331L301.219 331Z" fill="#EFF1F3"/>
<g filter="url(#filter1_d_2134_376)">
<path fill-rule="evenodd" clip-rule="evenodd" d="M270.458 310.187C269.419 311.816 267.377 312.471 265.606 311.697C259.157 308.879 243.842 301.809 232.694 293.646C222.517 286.194 214.443 276.83 210.546 271.926C209.121 270.133 209.626 267.554 211.564 266.332L229.505 255.012C231.296 253.882 233.66 254.335 234.952 256.012C238.507 260.632 245.826 269.657 253.748 276.596C261.367 283.268 271.335 288.799 276.859 291.622C279.026 292.73 279.829 295.483 278.521 297.535L270.458 310.187Z" fill="white"/>
<path fill-rule="evenodd" clip-rule="evenodd" d="M270.458 310.187C269.419 311.816 267.377 312.471 265.606 311.697C259.157 308.879 243.842 301.809 232.694 293.646C222.517 286.194 214.443 276.83 210.546 271.926C209.121 270.133 209.626 267.554 211.564 266.332L229.505 255.012C231.296 253.882 233.66 254.335 234.952 256.012C238.507 260.632 245.826 269.657 253.748 276.596C261.367 283.268 271.335 288.799 276.859 291.622C279.026 292.73 279.829 295.483 278.521 297.535L270.458 310.187Z" stroke="white"/>
</g>
<g filter="url(#filter2_d_2134_376)">
<path fill-rule="evenodd" clip-rule="evenodd" d="M206.993 259.561C205.328 260.403 203.316 259.978 202.248 258.448C199.432 254.419 194.1 245.815 190.527 234.058C186.891 222.096 185.626 208.677 185.202 202.093C185.058 199.85 186.852 198 189.099 198H210.299C212.677 198 214.556 200.064 214.478 202.441C214.304 207.738 214.477 216.911 216.989 225.136C219.341 232.836 223.746 239.713 226.774 243.849C228.326 245.969 227.701 249.088 225.356 250.274L206.993 259.561Z" fill="white"/>
<path fill-rule="evenodd" clip-rule="evenodd" d="M206.993 259.561C205.328 260.403 203.316 259.978 202.248 258.448C199.432 254.419 194.1 245.815 190.527 234.058C186.891 222.096 185.626 208.677 185.202 202.093C185.058 199.85 186.852 198 189.099 198H210.299C212.677 198 214.556 200.064 214.478 202.441C214.304 207.738 214.477 216.911 216.989 225.136C219.341 232.836 223.746 239.713 226.774 243.849C228.326 245.969 227.701 249.088 225.356 250.274L206.993 259.561Z" stroke="white"/>
</g>
<g filter="url(#filter3_d_2134_376)">
<path fill-rule="evenodd" clip-rule="evenodd" d="M206.993 128.439C205.328 127.597 203.316 128.022 202.248 129.552C199.432 133.581 194.1 142.185 190.527 153.942C186.891 165.904 185.626 179.323 185.202 185.907C185.058 188.15 186.852 190 189.099 190H210.299C212.677 190 214.556 187.936 214.478 185.559C214.304 180.262 214.477 171.089 216.989 162.864C219.341 155.164 223.746 148.287 226.774 144.151C228.326 142.031 227.701 138.912 225.356 137.726L206.993 128.439Z" fill="white"/>
<path fill-rule="evenodd" clip-rule="evenodd" d="M206.993 128.439C205.328 127.597 203.316 128.022 202.248 129.552C199.432 133.581 194.1 142.185 190.527 153.942C186.891 165.904 185.626 179.323 185.202 185.907C185.058 188.15 186.852 190 189.099 190H210.299C212.677 190 214.556 187.936 214.478 185.559C214.304 180.262 214.477 171.089 216.989 162.864C219.341 155.164 223.746 148.287 226.774 144.151C228.326 142.031 227.701 138.912 225.356 137.726L206.993 128.439Z" stroke="white"/>
</g>
<g filter="url(#filter4_d_2134_376)">
<path fill-rule="evenodd" clip-rule="evenodd" d="M270.458 77.8129C269.419 76.1837 267.377 75.5293 265.606 76.3029C259.157 79.1209 243.842 86.191 232.694 94.3541C222.517 101.806 214.443 111.17 210.546 116.074C209.121 117.867 209.626 120.446 211.564 121.668L229.505 132.988C231.296 134.118 233.66 133.665 234.952 131.988C238.507 127.368 245.826 118.343 253.748 111.404C261.367 104.732 271.335 99.2009 276.859 96.3779C279.026 95.2702 279.829 92.5175 278.521 90.4647L270.458 77.8129Z" fill="white"/>
<path fill-rule="evenodd" clip-rule="evenodd" d="M270.458 77.8129C269.419 76.1837 267.377 75.5293 265.606 76.3029C259.157 79.1209 243.842 86.191 232.694 94.3541C222.517 101.806 214.443 111.17 210.546 116.074C209.121 117.867 209.626 120.446 211.564 121.668L229.505 132.988C231.296 134.118 233.66 133.665 234.952 131.988C238.507 127.368 245.826 118.343 253.748 111.404C261.367 104.732 271.335 99.2009 276.859 96.3779C279.026 95.2702 279.829 92.5175 278.521 90.4647L270.458 77.8129Z" stroke="white"/>
</g>
<defs>
<filter id="filter0_d_2134_376" x="-24" y="0" width="735" height="392" filterUnits="userSpaceOnUse" color-interpolation-filters="sRGB">
<feFlood flood-opacity="0" result="BackgroundImageFix"/>
<feColorMatrix in="SourceAlpha" type="matrix" values="0 0 0 0 0 0 0 0 0 0 0 0 0 0 0 0 0 0 127 0" result="hardAlpha"/>
<feOffset dy="2"/>
<feGaussianBlur stdDeviation="24"/>
<feColorMatrix type="matrix" values="0 0 0 0 0 0 0 0 0 0 0 0 0 0 0 0 0 0 0.04 0"/>
<feBlend mode="normal" in2="BackgroundImageFix" result="effect1_dropShadow_2134_376"/>
<feBlend mode="normal" in="SourceGraphic" in2="effect1_dropShadow_2134_376" result="shape"/>
</filter>
<filter id="filter1_d_2134_376" x="161.229" y="207.889" width="166.425" height="154.632" filterUnits="userSpaceOnUse" color-interpolation-filters="sRGB">
<feFlood flood-opacity="0" result="BackgroundImageFix"/>
<feColorMatrix in="SourceAlpha" type="matrix" values="0 0 0 0 0 0 0 0 0 0 0 0 0 0 0 0 0 0 127 0" result="hardAlpha"/>
<feOffset dy="2"/>
<feGaussianBlur stdDeviation="24"/>
<feColorMatrix type="matrix" values="0 0 0 0 0 0 0 0 0 0 0 0 0 0 0 0 0 0 0.04 0"/>
<feBlend mode="normal" in2="BackgroundImageFix" result="effect1_dropShadow_2134_376"/>
<feBlend mode="normal" in="SourceGraphic" in2="effect1_dropShadow_2134_376" result="shape"/>
</filter>
<filter id="filter2_d_2134_376" x="136.694" y="151.5" width="139.431" height="158.986" filterUnits="userSpaceOnUse" color-interpolation-filters="sRGB">
<feFlood flood-opacity="0" result="BackgroundImageFix"/>
<feColorMatrix in="SourceAlpha" type="matrix" values="0 0 0 0 0 0 0 0 0 0 0 0 0 0 0 0 0 0 127 0" result="hardAlpha"/>
<feOffset dy="2"/>
<feGaussianBlur stdDeviation="24"/>
<feColorMatrix type="matrix" values="0 0 0 0 0 0 0 0 0 0 0 0 0 0 0 0 0 0 0.04 0"/>
<feBlend mode="normal" in2="BackgroundImageFix" result="effect1_dropShadow_2134_376"/>
<feBlend mode="normal" in="SourceGraphic" in2="effect1_dropShadow_2134_376" result="shape"/>
</filter>
<filter id="filter3_d_2134_376" x="136.694" y="81.5138" width="139.431" height="158.986" filterUnits="userSpaceOnUse" color-interpolation-filters="sRGB">
<feFlood flood-opacity="0" result="BackgroundImageFix"/>
<feColorMatrix in="SourceAlpha" type="matrix" values="0 0 0 0 0 0 0 0 0 0 0 0 0 0 0 0 0 0 127 0" result="hardAlpha"/>
<feOffset dy="2"/>
<feGaussianBlur stdDeviation="24"/>
<feColorMatrix type="matrix" values="0 0 0 0 0 0 0 0 0 0 0 0 0 0 0 0 0 0 0.04 0"/>
<feBlend mode="normal" in2="BackgroundImageFix" result="effect1_dropShadow_2134_376"/>
<feBlend mode="normal" in="SourceGraphic" in2="effect1_dropShadow_2134_376" result="shape"/>
</filter>
<filter id="filter4_d_2134_376" x="161.229" y="29.4787" width="166.425" height="154.632" filterUnits="userSpaceOnUse" color-interpolation-filters="sRGB">
<feFlood flood-opacity="0" result="BackgroundImageFix"/>
<feColorMatrix in="SourceAlpha" type="matrix" values="0 0 0 0 0 0 0 0 0 0 0 0 0 0 0 0 0 0 127 0" result="hardAlpha"/>
<feOffset dy="2"/>
<feGaussianBlur stdDeviation="24"/>
<feColorMatrix type="matrix" values="0 0 0 0 0 0 0 0 0 0 0 0 0 0 0 0 0 0 0.04 0"/>
<feBlend mode="normal" in2="BackgroundImageFix" result="effect1_dropShadow_2134_376"/>
<feBlend mode="normal" in="SourceGraphic" in2="effect1_dropShadow_2134_376" result="shape"/>
</filter>
</defs>
</svg>
