<svg width="29" height="26" viewBox="0 0 29 26" fill="none" xmlns="http://www.w3.org/2000/svg">
<path d="M24.4825 11.75H1.25C0.918479 11.75 0.600537 11.8817 0.366117 12.1161C0.131696 12.3505 0 12.6685 0 13C0 13.3315 0.131696 13.6495 0.366117 13.8839C0.600537 14.1183 0.918479 14.25 1.25 14.25H24.4825L15.365 23.365C15.1303 23.5997 14.9984 23.9181 14.9984 24.25C14.9984 24.5819 15.1303 24.9003 15.365 25.135C15.5997 25.3697 15.9181 25.5016 16.25 25.5016C16.5819 25.5016 16.9003 25.3697 17.135 25.135L28.385 13.885C28.5014 13.7689 28.5938 13.6309 28.6568 13.4791C28.7198 13.3272 28.7522 13.1644 28.7522 13C28.7522 12.8356 28.7198 12.6728 28.6568 12.5209C28.5938 12.369 28.5014 12.2311 28.385 12.115L17.135 0.864992C16.9003 0.630275 16.5819 0.498413 16.25 0.498413C15.9181 0.498413 15.5997 0.630275 15.365 0.864992C15.1303 1.09971 14.9984 1.41805 14.9984 1.74999C14.9984 2.08193 15.1303 2.40028 15.365 2.63499L24.4825 11.75Z" fill="#0177FC"/>
</svg>
