<svg width="52" height="98" viewBox="0 0 52 98" fill="none" xmlns="http://www.w3.org/2000/svg">
<path d="M47.9653 50.3663V32.8706C47.9653 29.7165 45.3992 27.1482 42.2429 27.1482H34.6182C34.6225 27.0964 34.6333 27.0488 34.6333 26.9969V4.04694C34.6333 1.81594 32.8174 0 30.5864 0H18.3526C16.1216 0 14.3056 1.81594 14.3056 4.04694V26.9948C14.3056 27.0466 14.3164 27.0964 14.3208 27.1461H6.69599C3.54188 27.1461 0.973633 29.7122 0.973633 32.8684V85.7035C0.973633 88.1313 2.49556 90.2045 4.63361 91.0346C3.93966 91.7761 3.51162 92.7662 3.51162 93.8601C3.51162 96.143 5.36863 98 7.65152 98C9.93441 98 11.7914 96.143 11.7914 93.8601C11.7914 92.95 11.4931 92.109 10.9915 91.4259H38.0382C37.5388 92.109 37.2383 92.95 37.2383 93.8601C37.2383 96.143 39.0953 98 41.3782 98C43.6611 98 45.5181 96.143 45.5181 93.8601C45.5181 92.7554 45.0814 91.7545 44.3723 91.0108C46.4758 90.1634 47.9653 88.1053 47.9653 85.7035V68.2078C49.6861 68.0046 51.0264 66.5389 51.0264 64.7641V53.8079C51.0264 52.0331 49.6861 50.5673 47.9653 50.3641V50.3663ZM18.3526 1.70352H30.5864C31.8791 1.70352 32.9298 2.75417 32.9298 4.04694V4.38203H16.007V4.04694C16.007 2.75417 17.0576 1.70352 18.3504 1.70352H18.3526ZM16.0092 26.9948V6.08555H32.9319V26.9948C32.9319 27.0791 32.8628 27.1461 32.7806 27.1461H29.5703V27.0553C29.5703 25.6782 28.4505 24.5605 27.0755 24.5605H21.872C20.4949 24.5605 19.3773 25.6804 19.3773 27.0553V27.1461H16.167C16.0827 27.1461 16.0156 27.0769 16.0156 26.9948H16.0092ZM27.8625 27.1482H21.0743V27.0574C21.0743 26.6208 21.4289 26.2662 21.8655 26.2662H27.0691C27.5058 26.2662 27.8603 26.6208 27.8603 27.0574V27.1482H27.8625ZM10.0857 93.8623C10.0857 95.2048 8.99402 96.2965 7.65152 96.2965C6.30903 96.2965 5.2173 95.2048 5.2173 93.8623C5.2173 92.5198 6.30903 91.428 7.65152 91.428C8.99402 91.428 10.0857 92.5198 10.0857 93.8623ZM41.3782 96.2965C40.0357 96.2965 38.944 95.2048 38.944 93.8623C38.944 92.5198 40.0357 91.428 41.3782 91.428C42.7207 91.428 43.8124 92.5198 43.8124 93.8623C43.8124 95.2048 42.7207 96.2965 41.3782 96.2965ZM46.2618 85.7057C46.2618 87.9216 44.4588 89.7224 42.2451 89.7224H6.69599C4.48012 89.7224 2.67932 87.9194 2.67932 85.7057V32.8706C2.67932 30.6547 4.48228 28.8539 6.69599 28.8539H42.2451C44.461 28.8539 46.2618 30.6569 46.2618 32.8706V85.7057ZM49.3229 64.7662C49.3229 65.5985 48.7436 66.2925 47.9675 66.4784V52.0957C48.7436 52.2817 49.3229 52.9756 49.3229 53.8079V64.7641V64.7662Z" fill="#D1D1D1"/>
<path d="M40.1442 88.4426H39.2881C39.1735 88.4426 39.0784 88.3475 39.0784 88.2308C39.0784 88.114 39.1713 88.0189 39.2881 88.0189H40.1247C40.2393 88.0189 40.343 88.114 40.343 88.2308C40.343 88.3475 40.2587 88.4426 40.1442 88.4426ZM38.4514 88.4426H37.6148C37.5002 88.4426 37.4051 88.3475 37.4051 88.2308C37.4051 88.114 37.4981 88.0189 37.6148 88.0189H38.4514C38.566 88.0189 38.6611 88.114 38.6611 88.2308C38.6611 88.3475 38.5682 88.4426 38.4514 88.4426ZM36.776 88.4426H35.9394C35.8248 88.4426 35.7297 88.3475 35.7297 88.2308C35.7297 88.114 35.8227 88.0189 35.9394 88.0189H36.776C36.8906 88.0189 36.9857 88.114 36.9857 88.2308C36.9857 88.3475 36.8928 88.4426 36.776 88.4426ZM35.1028 88.4426H34.2661C34.1516 88.4426 34.0564 88.3475 34.0564 88.2308C34.0564 88.114 34.1494 88.0189 34.2661 88.0189H35.1028C35.2173 88.0189 35.3125 88.114 35.3125 88.2308C35.3125 88.3475 35.2195 88.4426 35.1028 88.4426ZM33.4274 88.4426H32.5907C32.4761 88.4426 32.381 88.3475 32.381 88.2308C32.381 88.114 32.474 88.0189 32.5907 88.0189H33.4274C33.5419 88.0189 33.637 88.114 33.637 88.2308C33.637 88.3475 33.5441 88.4426 33.4274 88.4426ZM31.7519 88.4426H30.9153C30.8007 88.4426 30.7056 88.3475 30.7056 88.2308C30.7056 88.114 30.7986 88.0189 30.9153 88.0189H31.7519C31.8665 88.0189 31.9616 88.114 31.9616 88.2308C31.9616 88.3475 31.8687 88.4426 31.7519 88.4426ZM30.0765 88.4426H29.2399C29.1253 88.4426 29.0302 88.3475 29.0302 88.2308C29.0302 88.114 29.1232 88.0189 29.2399 88.0189H30.0765C30.1911 88.0189 30.2862 88.114 30.2862 88.2308C30.2862 88.3475 30.1933 88.4426 30.0765 88.4426ZM28.4033 88.4426H27.5666C27.4521 88.4426 27.3569 88.3475 27.3569 88.2308C27.3569 88.114 27.4499 88.0189 27.5666 88.0189H28.4033C28.5178 88.0189 28.613 88.114 28.613 88.2308C28.613 88.3475 28.52 88.4426 28.4033 88.4426ZM26.7278 88.4426H25.8912C25.7766 88.4426 25.6815 88.3475 25.6815 88.2308C25.6815 88.114 25.7745 88.0189 25.8912 88.0189H26.7278C26.8424 88.0189 26.9375 88.114 26.9375 88.2308C26.9375 88.3475 26.8446 88.4426 26.7278 88.4426ZM25.0524 88.4426H24.2158C24.1012 88.4426 24.0061 88.3475 24.0061 88.2308C24.0061 88.114 24.0991 88.0189 24.2158 88.0189H25.0524C25.167 88.0189 25.2621 88.114 25.2621 88.2308C25.2621 88.3475 25.1692 88.4426 25.0524 88.4426ZM23.377 88.4426H22.5404C22.4258 88.4426 22.3307 88.3475 22.3307 88.2308C22.3307 88.114 22.4236 88.0189 22.5404 88.0189H23.377C23.4916 88.0189 23.5867 88.114 23.5867 88.2308C23.5867 88.3475 23.4937 88.4426 23.377 88.4426ZM21.7038 88.4426H20.8671C20.7526 88.4426 20.6574 88.3475 20.6574 88.2308C20.6574 88.114 20.7504 88.0189 20.8671 88.0189H21.7038C21.8183 88.0189 21.9135 88.114 21.9135 88.2308C21.9135 88.3475 21.8205 88.4426 21.7038 88.4426ZM20.0283 88.4426H19.1917C19.0771 88.4426 18.982 88.3475 18.982 88.2308C18.982 88.114 19.075 88.0189 19.1917 88.0189H20.0283C20.1429 88.0189 20.238 88.114 20.238 88.2308C20.238 88.3475 20.1451 88.4426 20.0283 88.4426ZM18.3529 88.4426H17.5163C17.4017 88.4426 17.3066 88.3475 17.3066 88.2308C17.3066 88.114 17.3996 88.0189 17.5163 88.0189H18.3529C18.4675 88.0189 18.5626 88.114 18.5626 88.2308C18.5626 88.3475 18.4697 88.4426 18.3529 88.4426ZM16.6775 88.4426H15.8409C15.7263 88.4426 15.6312 88.3475 15.6312 88.2308C15.6312 88.114 15.7241 88.0189 15.8409 88.0189H16.6775C16.7921 88.0189 16.8872 88.114 16.8872 88.2308C16.8872 88.3475 16.7942 88.4426 16.6775 88.4426ZM15.0043 88.4426H14.1676C14.053 88.4426 13.9579 88.3475 13.9579 88.2308C13.9579 88.114 14.0509 88.0189 14.1676 88.0189H15.0043C15.1188 88.0189 15.2139 88.114 15.2139 88.2308C15.2139 88.3475 15.121 88.4426 15.0043 88.4426ZM13.3288 88.4426H12.4922C12.3776 88.4426 12.2825 88.3475 12.2825 88.2308C12.2825 88.114 12.3755 88.0189 12.4922 88.0189H13.3288C13.4434 88.0189 13.5385 88.114 13.5385 88.2308C13.5385 88.3475 13.4456 88.4426 13.3288 88.4426ZM11.6534 88.4426H10.8168C10.7022 88.4426 10.6071 88.3475 10.6071 88.2308C10.6071 88.114 10.7 88.0189 10.8168 88.0189H11.6534C11.768 88.0189 11.8631 88.114 11.8631 88.2308C11.8631 88.3475 11.7702 88.4426 11.6534 88.4426ZM9.978 88.4426H9.14137C9.02679 88.4426 8.93167 88.3475 8.93167 88.2308C8.93167 88.114 9.02463 88.0189 9.14137 88.0189H9.978C10.0926 88.0189 10.1877 88.114 10.1877 88.2308C10.1877 88.3475 10.0947 88.4426 9.978 88.4426ZM8.30474 88.4123C8.30474 88.4123 8.28961 88.4123 8.28096 88.4123C7.99128 88.3778 7.70159 88.3151 7.42488 88.2264C7.31463 88.1918 7.25409 88.0729 7.28868 87.9605C7.32327 87.8481 7.44001 87.7876 7.55027 87.8222C7.8032 87.9022 8.06478 87.9605 8.32852 87.9908C8.4431 88.0037 8.52525 88.1097 8.51228 88.2264C8.49931 88.3345 8.41067 88.4145 8.30474 88.4145V88.4123ZM40.9765 88.3605C40.8792 88.3605 40.7905 88.2913 40.7711 88.1897C40.7495 88.0751 40.823 87.9627 40.9354 87.9411C41.197 87.8892 41.4542 87.8114 41.6985 87.7097C41.8044 87.6643 41.9277 87.7184 41.9709 87.8265C42.0141 87.9346 41.9622 88.0578 41.8563 88.101C41.5861 88.2113 41.3051 88.2978 41.0175 88.354C41.0046 88.3561 40.9894 88.3583 40.9765 88.3583V88.3605ZM6.71796 87.9043C6.68337 87.9043 6.65094 87.8957 6.61852 87.8784C6.36342 87.7379 6.11914 87.5714 5.89214 87.3811C5.80351 87.3076 5.79054 87.1736 5.86404 87.0828C5.93754 86.992 6.06941 86.979 6.15805 87.0526C6.36342 87.2233 6.58609 87.3768 6.81741 87.5044C6.91901 87.5606 6.95576 87.6881 6.90172 87.7919C6.8628 87.8611 6.79146 87.9021 6.71796 87.9021V87.9043ZM42.5178 87.7249C42.4487 87.7249 42.3838 87.6903 42.3427 87.6298C42.28 87.5325 42.3081 87.4006 42.4033 87.3379C42.6259 87.1909 42.8356 87.0223 43.0259 86.8342C43.108 86.7542 43.2421 86.7564 43.3199 86.8407C43.3999 86.925 43.3977 87.059 43.3134 87.139C43.1037 87.3444 42.8724 87.5303 42.6281 87.6903C42.5935 87.7141 42.5546 87.7249 42.5135 87.7249H42.5178ZM5.43384 86.832C5.3733 86.832 5.31493 86.8061 5.27386 86.7564C5.08794 86.5294 4.92148 86.2808 4.78096 86.0235C4.72476 85.9219 4.76151 85.7922 4.86311 85.736C4.96472 85.6798 5.0901 85.7165 5.14631 85.8203C5.27386 86.0559 5.42519 86.2808 5.59381 86.4883C5.66731 86.5791 5.65434 86.711 5.56571 86.7866C5.52679 86.8191 5.47923 86.8364 5.43384 86.8364V86.832ZM43.7155 86.5553C43.6744 86.5553 43.6312 86.5424 43.5944 86.5164C43.4993 86.4494 43.4777 86.3175 43.5447 86.2224C43.6982 86.0019 43.8301 85.7663 43.9403 85.522C43.9879 85.416 44.1111 85.3685 44.217 85.416C44.323 85.4636 44.3684 85.589 44.3208 85.6949C44.1997 85.9651 44.0549 86.2246 43.8863 86.4667C43.8452 86.5251 43.7803 86.5553 43.7155 86.5553ZM4.6318 85.3533C4.54316 85.3533 4.46101 85.2971 4.43291 85.2063C4.34427 84.9253 4.28158 84.6335 4.24699 84.3395C4.23402 84.2227 4.31401 84.1189 4.42859 84.1038C4.54532 84.0887 4.64693 84.173 4.6599 84.2876C4.69233 84.5556 4.74854 84.8215 4.82852 85.0766C4.86311 85.1869 4.80258 85.3058 4.69449 85.3425C4.67287 85.349 4.65125 85.3533 4.62964 85.3533H4.6318ZM44.4008 85.0161C44.3857 85.0161 44.3684 85.0161 44.3532 85.0096C44.2408 84.9837 44.1716 84.8691 44.1976 84.7545C44.2581 84.4929 44.2949 84.2249 44.3057 83.9547C44.31 83.8379 44.403 83.7471 44.5219 83.7514C44.6364 83.7558 44.7272 83.8552 44.7207 83.9719C44.7078 84.2681 44.6689 84.5643 44.6018 84.8518C44.5781 84.9491 44.4938 85.0139 44.3986 85.0139L44.4008 85.0161ZM4.4221 83.6779C4.30752 83.6779 4.2124 83.5828 4.2124 83.4661V82.6165C4.2124 82.4997 4.30536 82.4046 4.4221 82.4046C4.53884 82.4046 4.6318 82.4997 4.6318 82.6165V83.4661C4.6318 83.5828 4.53884 83.6779 4.4221 83.6779ZM44.5175 83.3277C44.403 83.3277 44.3078 83.2326 44.3078 83.1159V82.2663C44.3078 82.1495 44.4008 82.0544 44.5175 82.0544C44.6343 82.0544 44.7272 82.1495 44.7272 82.2663V83.1159C44.7272 83.2326 44.6343 83.3277 44.5175 83.3277ZM4.4221 81.9809C4.30752 81.9809 4.2124 81.8858 4.2124 81.769V80.9194C4.2124 80.8027 4.30536 80.7076 4.4221 80.7076C4.53884 80.7076 4.6318 80.8027 4.6318 80.9194V81.769C4.6318 81.8858 4.53884 81.9809 4.4221 81.9809ZM44.5175 81.6307C44.403 81.6307 44.3078 81.5356 44.3078 81.4188V80.5692C44.3078 80.4525 44.4008 80.3574 44.5175 80.3574C44.6343 80.3574 44.7272 80.4525 44.7272 80.5692V81.4188C44.7272 81.5356 44.6343 81.6307 44.5175 81.6307ZM4.4221 80.2817C4.30752 80.2817 4.2124 80.1866 4.2124 80.0698V79.2202C4.2124 79.1035 4.30536 79.0084 4.4221 79.0084C4.53884 79.0084 4.6318 79.1035 4.6318 79.2202V80.0698C4.6318 80.1866 4.53884 80.2817 4.4221 80.2817ZM44.5175 79.9337C44.403 79.9337 44.3078 79.8385 44.3078 79.7218V78.8722C44.3078 78.7555 44.4008 78.6603 44.5175 78.6603C44.6343 78.6603 44.7272 78.7555 44.7272 78.8722V79.7218C44.7272 79.8385 44.6343 79.9337 44.5175 79.9337ZM4.4221 78.5847C4.30752 78.5847 4.2124 78.4895 4.2124 78.3728V77.5232C4.2124 77.4065 4.30536 77.3114 4.4221 77.3114C4.53884 77.3114 4.6318 77.4065 4.6318 77.5232V78.3728C4.6318 78.4895 4.53884 78.5847 4.4221 78.5847ZM44.5175 78.2345C44.403 78.2345 44.3078 78.1393 44.3078 78.0226V77.173C44.3078 77.0563 44.4008 76.9611 44.5175 76.9611C44.6343 76.9611 44.7272 77.0563 44.7272 77.173V78.0226C44.7272 78.1393 44.6343 78.2345 44.5175 78.2345ZM4.4221 76.8876C4.30752 76.8876 4.2124 76.7925 4.2124 76.6758V75.8262C4.2124 75.7094 4.30536 75.6143 4.4221 75.6143C4.53884 75.6143 4.6318 75.7094 4.6318 75.8262V76.6758C4.6318 76.7925 4.53884 76.8876 4.4221 76.8876ZM44.5175 76.5374C44.403 76.5374 44.3078 76.4423 44.3078 76.3256V75.476C44.3078 75.3592 44.4008 75.2641 44.5175 75.2641C44.6343 75.2641 44.7272 75.3592 44.7272 75.476V76.3256C44.7272 76.4423 44.6343 76.5374 44.5175 76.5374ZM4.4221 75.1884C4.30752 75.1884 4.2124 75.0933 4.2124 74.9766V74.127C4.2124 74.0102 4.30536 73.9151 4.4221 73.9151C4.53884 73.9151 4.6318 74.0102 4.6318 74.127V74.9766C4.6318 75.0933 4.53884 75.1884 4.4221 75.1884ZM44.5175 74.8404C44.403 74.8404 44.3078 74.7453 44.3078 74.6285V73.7789C44.3078 73.6622 44.4008 73.5671 44.5175 73.5671C44.6343 73.5671 44.7272 73.6622 44.7272 73.7789V74.6285C44.7272 74.7453 44.6343 74.8404 44.5175 74.8404ZM4.4221 73.4914C4.30752 73.4914 4.2124 73.3963 4.2124 73.2795V72.4299C4.2124 72.3132 4.30536 72.2181 4.4221 72.2181C4.53884 72.2181 4.6318 72.3132 4.6318 72.4299V73.2795C4.6318 73.3963 4.53884 73.4914 4.4221 73.4914ZM44.5175 73.1412C44.403 73.1412 44.3078 73.0461 44.3078 72.9293V72.0797C44.3078 71.963 44.4008 71.8679 44.5175 71.8679C44.6343 71.8679 44.7272 71.963 44.7272 72.0797V72.9293C44.7272 73.0461 44.6343 73.1412 44.5175 73.1412ZM4.4221 71.7944C4.30752 71.7944 4.2124 71.6992 4.2124 71.5825V70.7329C4.2124 70.6162 4.30536 70.521 4.4221 70.521C4.53884 70.521 4.6318 70.6162 4.6318 70.7329V71.5825C4.6318 71.6992 4.53884 71.7944 4.4221 71.7944ZM44.5175 71.4441C44.403 71.4441 44.3078 71.349 44.3078 71.2323V70.3827C44.3078 70.2659 44.4008 70.1708 44.5175 70.1708C44.6343 70.1708 44.7272 70.2659 44.7272 70.3827V71.2323C44.7272 71.349 44.6343 71.4441 44.5175 71.4441ZM4.4221 70.0952C4.30752 70.0952 4.2124 70 4.2124 69.8833V69.0337C4.2124 68.917 4.30536 68.8219 4.4221 68.8219C4.53884 68.8219 4.6318 68.917 4.6318 69.0337V69.8833C4.6318 70 4.53884 70.0952 4.4221 70.0952ZM44.5175 69.7471C44.403 69.7471 44.3078 69.652 44.3078 69.5353V68.6857C44.3078 68.5689 44.4008 68.4738 44.5175 68.4738C44.6343 68.4738 44.7272 68.5689 44.7272 68.6857V69.5353C44.7272 69.652 44.6343 69.7471 44.5175 69.7471ZM4.4221 68.3981C4.30752 68.3981 4.2124 68.303 4.2124 68.1863V67.3367C4.2124 67.2199 4.30536 67.1248 4.4221 67.1248C4.53884 67.1248 4.6318 67.2199 4.6318 67.3367V68.1863C4.6318 68.303 4.53884 68.3981 4.4221 68.3981ZM44.5175 68.0479C44.403 68.0479 44.3078 67.9528 44.3078 67.8361V66.9865C44.3078 66.8697 44.4008 66.7746 44.5175 66.7746C44.6343 66.7746 44.7272 66.8697 44.7272 66.9865V67.8361C44.7272 67.9528 44.6343 68.0479 44.5175 68.0479ZM4.4221 66.7011C4.30752 66.7011 4.2124 66.606 4.2124 66.4892V65.6396C4.2124 65.5229 4.30536 65.4278 4.4221 65.4278C4.53884 65.4278 4.6318 65.5229 4.6318 65.6396V66.4892C4.6318 66.606 4.53884 66.7011 4.4221 66.7011ZM44.5175 66.3509C44.403 66.3509 44.3078 66.2558 44.3078 66.139V65.2894C44.3078 65.1727 44.4008 65.0776 44.5175 65.0776C44.6343 65.0776 44.7272 65.1727 44.7272 65.2894V66.139C44.7272 66.2558 44.6343 66.3509 44.5175 66.3509ZM4.4221 65.0019C4.30752 65.0019 4.2124 64.9068 4.2124 64.79V63.9404C4.2124 63.8237 4.30536 63.7286 4.4221 63.7286C4.53884 63.7286 4.6318 63.8237 4.6318 63.9404V64.79C4.6318 64.9068 4.53884 65.0019 4.4221 65.0019ZM44.5175 64.6517C44.403 64.6517 44.3078 64.5566 44.3078 64.4398V63.5902C44.3078 63.4735 44.4008 63.3784 44.5175 63.3784C44.6343 63.3784 44.7272 63.4735 44.7272 63.5902V64.4398C44.7272 64.5566 44.6343 64.6517 44.5175 64.6517ZM4.4221 63.3049C4.30752 63.3049 4.2124 63.2097 4.2124 63.093V62.2434C4.2124 62.1267 4.30536 62.0315 4.4221 62.0315C4.53884 62.0315 4.6318 62.1267 4.6318 62.2434V63.093C4.6318 63.2097 4.53884 63.3049 4.4221 63.3049ZM44.5175 62.9546C44.403 62.9546 44.3078 62.8595 44.3078 62.7428V61.8932C44.3078 61.7765 44.4008 61.6813 44.5175 61.6813C44.6343 61.6813 44.7272 61.7765 44.7272 61.8932V62.7428C44.7272 62.8595 44.6343 62.9546 44.5175 62.9546ZM4.4221 61.6078C4.30752 61.6078 4.2124 61.5127 4.2124 61.396V60.5464C4.2124 60.4296 4.30536 60.3345 4.4221 60.3345C4.53884 60.3345 4.6318 60.4296 4.6318 60.5464V61.396C4.6318 61.5127 4.53884 61.6078 4.4221 61.6078ZM44.5175 61.2576C44.403 61.2576 44.3078 61.1625 44.3078 61.0458V60.1962C44.3078 60.0794 44.4008 59.9843 44.5175 59.9843C44.6343 59.9843 44.7272 60.0794 44.7272 60.1962V61.0458C44.7272 61.1625 44.6343 61.2576 44.5175 61.2576ZM4.4221 59.9086C4.30752 59.9086 4.2124 59.8135 4.2124 59.6968V58.8472C4.2124 58.7304 4.30536 58.6353 4.4221 58.6353C4.53884 58.6353 4.6318 58.7304 4.6318 58.8472V59.6968C4.6318 59.8135 4.53884 59.9086 4.4221 59.9086ZM44.5175 59.5584C44.403 59.5584 44.3078 59.4633 44.3078 59.3466V58.497C44.3078 58.3802 44.4008 58.2851 44.5175 58.2851C44.6343 58.2851 44.7272 58.3802 44.7272 58.497V59.3466C44.7272 59.4633 44.6343 59.5584 44.5175 59.5584ZM4.4221 58.2116C4.30752 58.2116 4.2124 58.1165 4.2124 57.9997V57.1501C4.2124 57.0334 4.30536 56.9383 4.4221 56.9383C4.53884 56.9383 4.6318 57.0334 4.6318 57.1501V57.9997C4.6318 58.1165 4.53884 58.2116 4.4221 58.2116ZM44.5175 57.8614C44.403 57.8614 44.3078 57.7663 44.3078 57.6495V56.7999C44.3078 56.6832 44.4008 56.5881 44.5175 56.5881C44.6343 56.5881 44.7272 56.6832 44.7272 56.7999V57.6495C44.7272 57.7663 44.6343 57.8614 44.5175 57.8614ZM4.4221 56.5146C4.30752 56.5146 4.2124 56.4194 4.2124 56.3027V55.4531C4.2124 55.3364 4.30536 55.2412 4.4221 55.2412C4.53884 55.2412 4.6318 55.3364 4.6318 55.4531V56.3027C4.6318 56.4194 4.53884 56.5146 4.4221 56.5146ZM44.5175 56.1643C44.403 56.1643 44.3078 56.0692 44.3078 55.9525V55.1029C44.3078 54.9861 44.4008 54.891 44.5175 54.891C44.6343 54.891 44.7272 54.9861 44.7272 55.1029V55.9525C44.7272 56.0692 44.6343 56.1643 44.5175 56.1643ZM4.4221 54.8154C4.30752 54.8154 4.2124 54.7202 4.2124 54.6035V53.7539C4.2124 53.6372 4.30536 53.542 4.4221 53.542C4.53884 53.542 4.6318 53.6372 4.6318 53.7539V54.6035C4.6318 54.7202 4.53884 54.8154 4.4221 54.8154ZM44.5175 54.4651C44.403 54.4651 44.3078 54.37 44.3078 54.2533V53.4037C44.3078 53.287 44.4008 53.1918 44.5175 53.1918C44.6343 53.1918 44.7272 53.287 44.7272 53.4037V54.2533C44.7272 54.37 44.6343 54.4651 44.5175 54.4651ZM4.4221 53.1183C4.30752 53.1183 4.2124 53.0232 4.2124 52.9065V52.0569C4.2124 51.9401 4.30536 51.845 4.4221 51.845C4.53884 51.845 4.6318 51.9401 4.6318 52.0569V52.9065C4.6318 53.0232 4.53884 53.1183 4.4221 53.1183ZM44.5175 52.7681C44.403 52.7681 44.3078 52.673 44.3078 52.5562V51.7067C44.3078 51.5899 44.4008 51.4948 44.5175 51.4948C44.6343 51.4948 44.7272 51.5899 44.7272 51.7067V52.5562C44.7272 52.673 44.6343 52.7681 44.5175 52.7681ZM4.4221 51.4213C4.30752 51.4213 4.2124 51.3262 4.2124 51.2094V50.3598C4.2124 50.2431 4.30536 50.148 4.4221 50.148C4.53884 50.148 4.6318 50.2431 4.6318 50.3598V51.2094C4.6318 51.3262 4.53884 51.4213 4.4221 51.4213ZM44.5175 51.0711C44.403 51.0711 44.3078 50.976 44.3078 50.8592V50.0096C44.3078 49.8929 44.4008 49.7978 44.5175 49.7978C44.6343 49.7978 44.7272 49.8929 44.7272 50.0096V50.8592C44.7272 50.976 44.6343 51.0711 44.5175 51.0711ZM4.4221 49.7221C4.30752 49.7221 4.2124 49.627 4.2124 49.5102V48.6606C4.2124 48.5439 4.30536 48.4488 4.4221 48.4488C4.53884 48.4488 4.6318 48.5439 4.6318 48.6606V49.5102C4.6318 49.627 4.53884 49.7221 4.4221 49.7221ZM44.5175 49.3719C44.403 49.3719 44.3078 49.2768 44.3078 49.16V48.3104C44.3078 48.1937 44.4008 48.0986 44.5175 48.0986C44.6343 48.0986 44.7272 48.1937 44.7272 48.3104V49.16C44.7272 49.2768 44.6343 49.3719 44.5175 49.3719ZM4.4221 48.0251C4.30752 48.0251 4.2124 47.9299 4.2124 47.8132V46.9636C4.2124 46.8469 4.30536 46.7517 4.4221 46.7517C4.53884 46.7517 4.6318 46.8469 4.6318 46.9636V47.8132C4.6318 47.9299 4.53884 48.0251 4.4221 48.0251ZM44.5175 47.6748C44.403 47.6748 44.3078 47.5797 44.3078 47.463V46.6134C44.3078 46.4966 44.4008 46.4015 44.5175 46.4015C44.6343 46.4015 44.7272 46.4966 44.7272 46.6134V47.463C44.7272 47.5797 44.6343 47.6748 44.5175 47.6748ZM4.4221 46.328C4.30752 46.328 4.2124 46.2329 4.2124 46.1162V45.2666C4.2124 45.1498 4.30536 45.0547 4.4221 45.0547C4.53884 45.0547 4.6318 45.1498 4.6318 45.2666V46.1162C4.6318 46.2329 4.53884 46.328 4.4221 46.328ZM44.5175 45.9778C44.403 45.9778 44.3078 45.8827 44.3078 45.7659V44.9163C44.3078 44.7996 44.4008 44.7045 44.5175 44.7045C44.6343 44.7045 44.7272 44.7996 44.7272 44.9163V45.7659C44.7272 45.8827 44.6343 45.9778 44.5175 45.9778ZM4.4221 44.6288C4.30752 44.6288 4.2124 44.5337 4.2124 44.417V43.5674C4.2124 43.4506 4.30536 43.3555 4.4221 43.3555C4.53884 43.3555 4.6318 43.4506 4.6318 43.5674V44.417C4.6318 44.5337 4.53884 44.6288 4.4221 44.6288ZM44.5175 44.2786C44.403 44.2786 44.3078 44.1835 44.3078 44.0668V43.2172C44.3078 43.1004 44.4008 43.0053 44.5175 43.0053C44.6343 43.0053 44.7272 43.1004 44.7272 43.2172V44.0668C44.7272 44.1835 44.6343 44.2786 44.5175 44.2786ZM4.4221 42.9318C4.30752 42.9318 4.2124 42.8367 4.2124 42.7199V41.8703C4.2124 41.7536 4.30536 41.6585 4.4221 41.6585C4.53884 41.6585 4.6318 41.7536 4.6318 41.8703V42.7199C4.6318 42.8367 4.53884 42.9318 4.4221 42.9318ZM44.5175 42.5816C44.403 42.5816 44.3078 42.4865 44.3078 42.3697V41.5201C44.3078 41.4034 44.4008 41.3083 44.5175 41.3083C44.6343 41.3083 44.7272 41.4034 44.7272 41.5201V42.3697C44.7272 42.4865 44.6343 42.5816 44.5175 42.5816ZM4.4221 41.2348C4.30752 41.2348 4.2124 41.1396 4.2124 41.0229V40.1733C4.2124 40.0566 4.30536 39.9614 4.4221 39.9614C4.53884 39.9614 4.6318 40.0566 4.6318 40.1733V41.0229C4.6318 41.1396 4.53884 41.2348 4.4221 41.2348ZM44.5175 40.8845C44.403 40.8845 44.3078 40.7894 44.3078 40.6727V39.8231C44.3078 39.7063 44.4008 39.6112 44.5175 39.6112C44.6343 39.6112 44.7272 39.7063 44.7272 39.8231V40.6727C44.7272 40.7894 44.6343 40.8845 44.5175 40.8845ZM4.4221 39.5356C4.30752 39.5356 4.2124 39.4404 4.2124 39.3237V38.4741C4.2124 38.3574 4.30536 38.2622 4.4221 38.2622C4.53884 38.2622 4.6318 38.3574 4.6318 38.4741V39.3237C4.6318 39.4404 4.53884 39.5356 4.4221 39.5356ZM44.5175 39.1853C44.403 39.1853 44.3078 39.0902 44.3078 38.9735V38.1239C44.3078 38.0071 44.4008 37.912 44.5175 37.912C44.6343 37.912 44.7272 38.0071 44.7272 38.1239V38.9735C44.7272 39.0902 44.6343 39.1853 44.5175 39.1853ZM4.4221 37.8385C4.30752 37.8385 4.2124 37.7434 4.2124 37.6267V36.7771C4.2124 36.6603 4.30536 36.5652 4.4221 36.5652C4.53884 36.5652 4.6318 36.6603 4.6318 36.7771V37.6267C4.6318 37.7434 4.53884 37.8385 4.4221 37.8385ZM44.5175 37.4883C44.403 37.4883 44.3078 37.3932 44.3078 37.2764V36.4268C44.3078 36.3101 44.4008 36.215 44.5175 36.215C44.6343 36.215 44.7272 36.3101 44.7272 36.4268V37.2764C44.7272 37.3932 44.6343 37.4883 44.5175 37.4883ZM4.4221 36.1415C4.30752 36.1415 4.2124 36.0464 4.2124 35.9296V35.08C4.2124 34.9633 4.30536 34.8682 4.4221 34.8682C4.53884 34.8682 4.6318 34.9633 4.6318 35.08V35.9296C4.6318 36.0464 4.53884 36.1415 4.4221 36.1415ZM44.5175 35.7913C44.403 35.7913 44.3078 35.6961 44.3078 35.5794V34.7298C44.3078 34.6131 44.4008 34.518 44.5175 34.518C44.6343 34.518 44.7272 34.6131 44.7272 34.7298V35.5794C44.7272 35.6961 44.6343 35.7913 44.5175 35.7913ZM4.42642 34.4423C4.42642 34.4423 4.41994 34.4423 4.41778 34.4423C4.3032 34.438 4.2124 34.3385 4.21889 34.2218C4.23186 33.9256 4.27293 33.6294 4.33995 33.3419C4.36589 33.2273 4.48047 33.1582 4.59072 33.1841C4.70314 33.2122 4.77232 33.3246 4.74637 33.4392C4.68584 33.7008 4.64909 33.9688 4.63612 34.2391C4.6318 34.3537 4.53884 34.4423 4.42859 34.4423H4.42642ZM44.4851 34.0942C44.3813 34.0942 44.2905 34.0164 44.2776 33.9083C44.2451 33.6403 44.1868 33.3765 44.1068 33.1193C44.0722 33.009 44.1306 32.8879 44.2408 32.8533C44.3511 32.8166 44.4678 32.8793 44.5024 32.9895C44.591 33.2706 44.6559 33.5624 44.6905 33.8564C44.7056 33.9732 44.6235 34.0769 44.5089 34.0921C44.5002 34.0921 44.4916 34.0921 44.4829 34.0921L44.4851 34.0942ZM4.81339 32.8015C4.78529 32.8015 4.75502 32.795 4.72692 32.782C4.62099 32.7344 4.57559 32.6091 4.62315 32.501C4.74421 32.2307 4.89122 31.9713 5.05984 31.7314C5.12686 31.6362 5.25657 31.6146 5.35169 31.6816C5.44464 31.7487 5.46842 31.8805 5.40141 31.9756C5.24792 32.194 5.11388 32.4296 5.00579 32.6761C4.9712 32.7539 4.89554 32.7993 4.81555 32.7993L4.81339 32.8015ZM43.9728 32.4902C43.8993 32.4902 43.8279 32.4512 43.789 32.3821C43.6593 32.1464 43.508 31.9216 43.3393 31.7162C43.2658 31.6276 43.2766 31.4936 43.3653 31.4179C43.4539 31.3444 43.5858 31.3552 43.6593 31.446C43.8452 31.673 44.0117 31.9194 44.1543 32.1789C44.2106 32.2805 44.1738 32.4102 44.0722 32.4664C44.0398 32.4837 44.0052 32.4923 43.9706 32.4923L43.9728 32.4902ZM5.7754 31.4244C5.72136 31.4244 5.66515 31.4028 5.62408 31.3595C5.54409 31.2752 5.54625 31.1412 5.63056 31.0612C5.84242 30.8558 6.07157 30.6699 6.31802 30.5099C6.41531 30.4472 6.54502 30.4753 6.60555 30.5726C6.66608 30.6699 6.64014 30.8018 6.54285 30.8645C6.32019 31.0093 6.11049 31.1779 5.91809 31.366C5.87701 31.4049 5.82513 31.4244 5.77324 31.4244H5.7754ZM42.907 31.1931C42.8616 31.1931 42.814 31.1779 42.7751 31.1455C42.5697 30.9747 42.3471 30.8234 42.1136 30.6958C42.012 30.6396 41.9752 30.5121 42.0293 30.4083C42.0833 30.3045 42.2109 30.2678 42.3125 30.3218C42.5697 30.4624 42.814 30.6288 43.0388 30.8169C43.1275 30.8904 43.1404 31.0244 43.0669 31.1152C43.0259 31.1671 42.9653 31.1931 42.9048 31.1931H42.907ZM7.17195 30.5078C7.0898 30.5078 7.01197 30.458 6.97738 30.3759C6.93414 30.2678 6.98603 30.1446 7.09196 30.1013C7.36219 29.9911 7.64539 29.9068 7.93075 29.8506C8.04316 29.8268 8.15342 29.9024 8.17503 30.017C8.19665 30.1316 8.12315 30.2419 8.01073 30.2656C7.74915 30.3175 7.4919 30.3953 7.24761 30.4948C7.22167 30.5056 7.19573 30.5099 7.16978 30.5099L7.17195 30.5078ZM41.4434 30.391C41.4218 30.391 41.4023 30.3889 41.3807 30.3824C41.1278 30.3024 40.8662 30.2462 40.6025 30.2159C40.4879 30.2029 40.4057 30.097 40.4187 29.9824C40.4317 29.8657 40.529 29.7792 40.65 29.7965C40.9419 29.8289 41.2294 29.8916 41.5061 29.9803C41.6164 30.0149 41.6769 30.1338 41.6423 30.2462C41.6142 30.337 41.532 30.3953 41.4434 30.3953V30.391ZM39.7896 30.1856H38.953C38.8384 30.1856 38.7433 30.0905 38.7433 29.9738C38.7433 29.8571 38.8362 29.7619 38.953 29.7619H39.7896C39.9042 29.7619 39.9993 29.8571 39.9993 29.9738C39.9993 30.0905 39.9064 30.1856 39.7896 30.1856ZM38.1142 30.1856H37.2776C37.163 30.1856 37.0679 30.0905 37.0679 29.9738C37.0679 29.8571 37.1608 29.7619 37.2776 29.7619H38.1142C38.2288 29.7619 38.3239 29.8571 38.3239 29.9738C38.3239 30.0905 38.2309 30.1856 38.1142 30.1856ZM36.4409 30.1856H35.6043C35.4897 30.1856 35.3946 30.0905 35.3946 29.9738C35.3946 29.8571 35.4876 29.7619 35.6043 29.7619H36.4409C36.5555 29.7619 36.6506 29.8571 36.6506 29.9738C36.6506 30.0905 36.5577 30.1856 36.4409 30.1856ZM34.7655 30.1856H33.9289C33.8143 30.1856 33.7192 30.0905 33.7192 29.9738C33.7192 29.8571 33.8122 29.7619 33.9289 29.7619H34.7655C34.8801 29.7619 34.9752 29.8571 34.9752 29.9738C34.9752 30.0905 34.8823 30.1856 34.7655 30.1856ZM33.0901 30.1856H32.2535C32.1389 30.1856 32.0438 30.0905 32.0438 29.9738C32.0438 29.8571 32.1367 29.7619 32.2535 29.7619H33.0901C33.2047 29.7619 33.2998 29.8571 33.2998 29.9738C33.2998 30.0905 33.2068 30.1856 33.0901 30.1856ZM31.4147 30.1856H30.5781C30.4635 30.1856 30.3684 30.0905 30.3684 29.9738C30.3684 29.8571 30.4613 29.7619 30.5781 29.7619H31.4147C31.5293 29.7619 31.6244 29.8571 31.6244 29.9738C31.6244 30.0905 31.5314 30.1856 31.4147 30.1856ZM29.7414 30.1856H28.9048C28.7902 30.1856 28.6951 30.0905 28.6951 29.9738C28.6951 29.8571 28.7881 29.7619 28.9048 29.7619H29.7414C29.856 29.7619 29.9511 29.8571 29.9511 29.9738C29.9511 30.0905 29.8582 30.1856 29.7414 30.1856ZM28.066 30.1856H27.2294C27.1148 30.1856 27.0197 30.0905 27.0197 29.9738C27.0197 29.8571 27.1127 29.7619 27.2294 29.7619H28.066C28.1806 29.7619 28.2757 29.8571 28.2757 29.9738C28.2757 30.0905 28.1828 30.1856 28.066 30.1856ZM26.3906 30.1856H25.554C25.4394 30.1856 25.3443 30.0905 25.3443 29.9738C25.3443 29.8571 25.4372 29.7619 25.554 29.7619H26.3906C26.5052 29.7619 26.6003 29.8571 26.6003 29.9738C26.6003 30.0905 26.5073 30.1856 26.3906 30.1856ZM24.7173 30.1856H23.8807C23.7661 30.1856 23.671 30.0905 23.671 29.9738C23.671 29.8571 23.764 29.7619 23.8807 29.7619H24.7173C24.8319 29.7619 24.927 29.8571 24.927 29.9738C24.927 30.0905 24.8341 30.1856 24.7173 30.1856ZM23.0419 30.1856H22.2053C22.0907 30.1856 21.9956 30.0905 21.9956 29.9738C21.9956 29.8571 22.0886 29.7619 22.2053 29.7619H23.0419C23.1565 29.7619 23.2516 29.8571 23.2516 29.9738C23.2516 30.0905 23.1587 30.1856 23.0419 30.1856ZM21.3665 30.1856H20.5299C20.4153 30.1856 20.3202 30.0905 20.3202 29.9738C20.3202 29.8571 20.4131 29.7619 20.5299 29.7619H21.3665C21.4811 29.7619 21.5762 29.8571 21.5762 29.9738C21.5762 30.0905 21.4833 30.1856 21.3665 30.1856ZM19.6911 30.1856H18.8545C18.7399 30.1856 18.6448 30.0905 18.6448 29.9738C18.6448 29.8571 18.7377 29.7619 18.8545 29.7619H19.6911C19.8057 29.7619 19.9008 29.8571 19.9008 29.9738C19.9008 30.0905 19.8078 30.1856 19.6911 30.1856ZM18.0178 30.1856H17.1812C17.0666 30.1856 16.9715 30.0905 16.9715 29.9738C16.9715 29.8571 17.0645 29.7619 17.1812 29.7619H18.0178C18.1324 29.7619 18.2275 29.8571 18.2275 29.9738C18.2275 30.0905 18.1346 30.1856 18.0178 30.1856ZM16.3424 30.1856H15.5058C15.3912 30.1856 15.2961 30.0905 15.2961 29.9738C15.2961 29.8571 15.3891 29.7619 15.5058 29.7619H16.3424C16.457 29.7619 16.5521 29.8571 16.5521 29.9738C16.5521 30.0905 16.4592 30.1856 16.3424 30.1856ZM14.667 30.1856H13.8304C13.7158 30.1856 13.6207 30.0905 13.6207 29.9738C13.6207 29.8571 13.7136 29.7619 13.8304 29.7619H14.667C14.7816 29.7619 14.8767 29.8571 14.8767 29.9738C14.8767 30.0905 14.7837 30.1856 14.667 30.1856ZM12.9916 30.1856H12.155C12.0404 30.1856 11.9453 30.0905 11.9453 29.9738C11.9453 29.8571 12.0382 29.7619 12.155 29.7619H12.9916C13.1062 29.7619 13.2013 29.8571 13.2013 29.9738C13.2013 30.0905 13.1083 30.1856 12.9916 30.1856ZM11.3183 30.1856H10.4817C10.3671 30.1856 10.272 30.0905 10.272 29.9738C10.272 29.8571 10.365 29.7619 10.4817 29.7619H11.3183C11.4329 29.7619 11.528 29.8571 11.528 29.9738C11.528 30.0905 11.4351 30.1856 11.3183 30.1856ZM9.64292 30.1856H8.81494C8.70036 30.1856 8.60091 30.0905 8.60091 29.9738C8.60091 29.8571 8.68955 29.7619 8.80413 29.7619H9.64075C9.75533 29.7619 9.85045 29.8571 9.85045 29.9738C9.85045 30.0905 9.75749 30.1856 9.64075 30.1856H9.64292Z" fill="#D1D1D1"/>
<path d="M36.4949 33.05H12.4445C9.30556 33.05 6.75244 35.6032 6.75244 38.7421V81.4361C6.75244 83.7557 8.63972 85.643 10.9594 85.643H37.9779C40.2975 85.643 42.1848 83.7557 42.1848 81.4361V38.7421C42.1848 35.6032 39.6317 33.05 36.4927 33.05H36.4949ZM12.4445 34.7557H36.4927C38.6913 34.7557 40.4791 36.5436 40.4791 38.7421V60.3258C39.7787 59.8048 38.914 59.4935 37.9779 59.4935H10.9615C10.0233 59.4935 9.16072 59.8048 8.46029 60.3258V38.7421C8.46029 36.5436 10.2481 34.7557 12.4467 34.7557H12.4445ZM12.4445 83.9395C10.246 83.9395 8.45812 82.1517 8.45812 79.9531V63.7005C8.45812 62.3212 9.58011 61.1992 10.9594 61.1992H37.9779C39.3571 61.1992 40.4791 62.3212 40.4791 63.7005V79.9531C40.4791 82.1517 38.6913 83.9395 36.4927 83.9395H12.4445Z" fill="#D1D1D1"/>
<path d="M26.7151 42.6723H22.225C20.636 42.6723 19.3433 41.3796 19.3433 39.7906C19.3433 38.2017 20.636 36.9067 22.225 36.9067H26.7151C28.304 36.9067 29.5968 38.1995 29.5968 39.7906C29.5968 41.3817 28.304 42.6723 26.7151 42.6723ZM22.225 38.6124C21.5743 38.6124 21.0468 39.1399 21.0468 39.7906C21.0468 40.4413 21.5743 40.9688 22.225 40.9688H26.7151C27.3658 40.9688 27.8933 40.4413 27.8933 39.7906C27.8933 39.1399 27.3658 38.6124 26.7151 38.6124H22.225Z" fill="#D1D1D1"/>
<path d="M8.72535 94.0484C8.82591 93.4309 8.40686 92.8488 7.78937 92.7482C7.17188 92.6477 6.58978 93.0667 6.48922 93.6842C6.38865 94.3017 6.8077 94.8838 7.42519 94.9844C8.04269 95.0849 8.62478 94.6659 8.72535 94.0484Z" fill="#D1D1D1"/>
<path d="M42.4805 94.1165C42.6248 93.5077 42.2484 92.8972 41.6396 92.7529C41.0309 92.6085 40.4204 92.985 40.276 93.5938C40.1317 94.2025 40.5081 94.813 41.1169 94.9574C41.7256 95.1017 42.3361 94.7252 42.4805 94.1165Z" fill="#D1D1D1"/>
</svg>
