<svg width="46" height="97" viewBox="0 0 46 97" fill="none" xmlns="http://www.w3.org/2000/svg">
<path d="M45.6254 58.5563C45.6254 54.72 42.5043 51.5989 38.6679 51.5989H31.0249V2.35935C31.0249 1.058 29.9669 0 28.6656 0H17.3343C16.033 0 14.975 1.058 14.975 2.35935V51.5989H7.33195C3.49563 51.5989 0.374512 54.72 0.374512 58.5563V85.0361C0.374512 85.9206 0.609393 86.7522 1.01355 87.4737C0.958535 87.7573 0.922551 88.0429 0.922551 88.3371C0.922551 90.1103 1.90862 91.6571 3.36232 92.4569C2.9899 92.9352 2.76349 93.534 2.76349 94.1857C2.76349 95.7367 4.02462 97 5.57777 97C7.13092 97 8.39208 95.7389 8.39208 94.1857C8.39208 93.553 8.17835 92.969 7.82497 92.4993C8.81527 91.9787 9.59821 91.1133 10.0108 90.0341H35.9933C36.4059 91.1154 37.1889 91.9808 38.177 92.4993C37.8215 92.969 37.6099 93.553 37.6099 94.1857C37.6099 95.7367 38.8711 97 40.4242 97C41.9774 97 43.2364 95.7389 43.2364 94.1857C43.2364 93.534 43.0121 92.9352 42.6376 92.4569C44.0892 91.655 45.0752 90.1103 45.0752 88.3371C45.0752 88.0387 45.0392 87.7509 44.9863 87.4695C45.3905 86.7479 45.6233 85.9185 45.6233 85.0361V58.5563H45.6254ZM16.6445 2.35935C16.6445 1.97847 16.9535 1.66742 17.3365 1.66742H28.6677C29.0486 1.66742 29.3596 1.97635 29.3596 2.35935V4.57481H16.6466V2.35935H16.6445ZM16.6445 6.24434H29.3575V51.5989H16.6445V6.24434ZM2.04405 58.5563C2.04405 55.6405 4.41609 53.2684 7.33195 53.2684H38.6658C41.5817 53.2684 43.9537 55.6405 43.9537 58.5563V85.0361C43.9537 86.8707 42.4619 88.3646 40.6252 88.3646H5.36829C3.53371 88.3646 2.03981 86.8728 2.03981 85.0361V58.5563H2.04405ZM5.57989 95.3305C4.9472 95.3305 4.43512 94.8163 4.43512 94.1857C4.43512 93.5551 4.94932 93.041 5.57989 93.041C6.21046 93.041 6.72466 93.5551 6.72466 94.1857C6.72466 94.8163 6.21046 95.3305 5.57989 95.3305ZM5.62855 91.3714C4.28277 91.3714 3.14013 90.4912 2.74443 89.2766C3.50831 89.7527 4.40763 90.032 5.37253 90.032H8.14237C7.59433 90.8509 6.66963 91.3714 5.62855 91.3714ZM37.8639 90.032H40.6295C41.5944 90.032 42.4937 89.7527 43.2597 89.2766C42.864 90.4912 41.7214 91.3714 40.3756 91.3714C39.3366 91.3714 38.414 90.8509 37.866 90.032H37.8639ZM40.4263 95.3305C39.7937 95.3305 39.2816 94.8163 39.2816 94.1857C39.2816 93.5551 39.7958 93.041 40.4263 93.041C41.0569 93.041 41.5711 93.5551 41.5711 94.1857C41.5711 94.8163 41.0569 95.3305 40.4263 95.3305Z" fill="#0177FC"/>
<path d="M38.7994 65.8566H7.20312V67.524H38.7994V65.8566Z" fill="#0177FC"/>
<path d="M38.7994 75.2263H7.20312V76.8937H38.7994V75.2263Z" fill="#0177FC"/>
<path d="M27.2671 57.7607H18.7354V61.9356H27.2671V57.7607ZM25.5997 60.2682H20.4049V59.4302H25.5997V60.2682Z" fill="#0177FC"/>
</svg>
