<svg width="54" height="54" viewBox="0 0 54 54" fill="none" xmlns="http://www.w3.org/2000/svg">
<path d="M27 13.5C30.7279 13.5 33.75 10.4779 33.75 6.75C33.75 3.02208 30.7279 0 27 0C23.2721 0 20.25 3.02208 20.25 6.75C20.25 10.4779 23.2721 13.5 27 13.5Z" fill="#0177FC"/>
<path d="M36 22.5V18C35.9986 16.807 35.524 15.6632 34.6804 14.8196C33.8368 13.976 32.693 13.5014 31.5 13.5H22.5C21.307 13.5014 20.1632 13.976 19.3196 14.8196C18.476 15.6632 18.0014 16.807 18 18V22.5H0V27H54V22.5H36ZM4.5 51.75C4.5 52.3467 4.73705 52.919 5.15901 53.341C5.58097 53.7629 6.15326 54 6.75 54H47.25C47.8467 54 48.419 53.7629 48.841 53.341C49.2629 52.919 49.5 52.3467 49.5 51.75V29.25H4.5V51.75ZM17.4375 43.9312L21.4875 44.4859L25.3139 40.6609L18.8229 35.6062L19.0043 33.0612L28.7412 37.2341L32.4371 33.5382C32.86 33.1205 33.4309 32.8871 34.0253 32.8889C34.6197 32.8907 35.1892 33.1277 35.6094 33.548C36.0297 33.9683 36.2666 34.5378 36.2683 35.1322C36.2701 35.7265 36.0366 36.2975 35.6189 36.7203L31.9233 40.4159L36.0962 50.1528L33.5509 50.3345L28.496 43.8429L24.671 47.6693L25.2256 51.7193L22.3476 51.75L21.1123 48.0443L17.4066 46.809L17.4375 43.9312Z" fill="#0177FC"/>
</svg>
