<svg width="54" height="54" viewBox="0 0 54 54" fill="none" xmlns="http://www.w3.org/2000/svg">
<path d="M30.5859 0.926453V10.5469H40.2061L30.5859 0.926453Z" fill="#0177FC"/>
<path d="M38.3387 18.9844C39.2788 18.984 40.2159 19.0885 41.1328 19.2958V13.7109H29.0039C28.1302 13.7109 27.4219 13.0026 27.4219 12.1289V0H5.80078C2.60223 0 0 2.60223 0 5.80078V48.1992C0 51.3978 2.60223 54 5.80078 54H35.332C38.5306 54 41.1328 51.3978 41.1328 48.1992V43.9854C40.2159 44.1927 39.2788 44.2972 38.3387 44.2969C31.3601 44.2969 25.6825 38.6193 25.6825 31.6406C25.6825 24.662 31.3601 18.9844 38.3387 18.9844ZM21.6211 39.0234H7.91016C7.03645 39.0234 6.32812 38.3151 6.32812 37.4414C6.32812 36.5677 7.03645 35.8594 7.91016 35.8594H21.6211C22.4948 35.8594 23.2031 36.5677 23.2031 37.4414C23.2031 38.3151 22.4948 39.0234 21.6211 39.0234ZM21.6211 32.6953H7.91016C7.03645 32.6953 6.32812 31.987 6.32812 31.1133C6.32812 30.2396 7.03645 29.5312 7.91016 29.5312H21.6211C22.4948 29.5312 23.2031 30.2396 23.2031 31.1133C23.2031 31.987 22.4948 32.6953 21.6211 32.6953ZM21.6211 26.3672H7.91016C7.03645 26.3672 6.32812 25.6589 6.32812 24.7852C6.32812 23.9115 7.03645 23.2031 7.91016 23.2031H21.6211C22.4948 23.2031 23.2031 23.9115 23.2031 24.7852C23.2031 25.6589 22.4948 26.3672 21.6211 26.3672ZM25.8398 20.0391H7.91016C7.03645 20.0391 6.32812 19.3307 6.32812 18.457C6.32812 17.5833 7.03645 16.875 7.91016 16.875H25.8398C26.7135 16.875 27.4219 17.5833 27.4219 18.457C27.4219 19.3307 26.7135 20.0391 25.8398 20.0391Z" fill="#0177FC"/>
<path d="M53.5368 44.6013L46.0732 37.1377C47.1796 35.5855 47.8311 33.6877 47.8311 31.6406C47.8311 26.4066 43.5729 22.1484 38.3389 22.1484C33.1049 22.1484 28.8467 26.4066 28.8467 31.6406C28.8467 36.8746 33.1049 41.1328 38.3389 41.1328C40.386 41.1328 42.2837 40.4813 43.8359 39.375L51.2994 46.8385C51.6083 47.1474 52.0132 47.3019 52.418 47.3019C52.8228 47.3019 53.2278 47.1475 53.5366 46.8385C54.1548 46.2207 54.1548 45.2191 53.5368 44.6013Z" fill="#0177FC"/>
</svg>
