<svg width="25" height="24" viewBox="0 0 25 24" fill="none" xmlns="http://www.w3.org/2000/svg">
<g clip-path="url(#clip0_19_12573)">
<path d="M24.0896 7.7436C24.2324 8.052 24.242 9.2916 18.2288 12.114L12.3332 14.8812C10.2812 15.8448 7.30398 17.112 5.99118 17.4624C5.07198 17.7072 4.19478 17.0832 4.19478 17.0832C4.19478 17.0832 1.54758 14.7132 0.844377 14.1804C0.142377 13.6476 0.202377 13.3764 1.10238 13.0884C1.66278 12.9096 4.85838 13.68 6.22038 14.0244C7.46246 13.2805 8.7191 12.5611 9.98958 11.8668C8.31438 10.6272 5.17998 8.3124 4.18038 7.6068C3.22158 6.9288 4.19238 6.6852 4.19238 6.6852C4.63398 6.5664 5.58678 6.4116 6.06678 6.5124C9.33198 7.1952 14.7824 8.9976 15.2 9.1356C16.3581 8.52857 17.5271 7.94248 18.7064 7.3776C21.1964 6.2088 23.8988 7.3332 24.0896 7.7436Z" fill="#A9A3B9"/>
</g>
<defs>
<clipPath id="clip0_19_12573">
<rect width="24" height="24" fill="white" transform="translate(0.245605)"/>
</clipPath>
</defs>
</svg>
