<svg width="25" height="24" viewBox="0 0 25 24" fill="none" xmlns="http://www.w3.org/2000/svg">
<path d="M2.57898 9C2.57898 7.114 2.57898 6.172 3.16498 5.586C3.75098 5 4.69298 5 6.57898 5H18.579C20.465 5 21.407 5 21.993 5.586C22.579 6.172 22.579 7.114 22.579 9C22.579 9.471 22.579 9.707 22.433 9.854C22.286 10 22.049 10 21.579 10H3.57898C3.10798 10 2.87198 10 2.72498 9.854C2.57898 9.707 2.57898 9.47 2.57898 9ZM2.57898 18C2.57898 19.886 2.57898 20.828 3.16498 21.414C3.75098 22 4.69298 22 6.57898 22H18.579C20.465 22 21.407 22 21.993 21.414C22.579 20.828 22.579 19.886 22.579 18V13C22.579 12.529 22.579 12.293 22.433 12.146C22.286 12 22.049 12 21.579 12H3.57898C3.10798 12 2.87198 12 2.72498 12.146C2.57898 12.293 2.57898 12.53 2.57898 13V18Z" fill="#A9A3B9"/>
<path d="M7.57898 3V6M17.579 3V6" stroke="#A9A3B9" stroke-width="2" stroke-linecap="round"/>
</svg>
