<svg width="54" height="34" viewBox="0 0 54 34" fill="none" xmlns="http://www.w3.org/2000/svg">
<path d="M49.2539 0.230469H22.6758V5.1875C22.6758 6.0612 21.9675 6.76953 21.0938 6.76953C20.22 6.76953 19.5117 6.0612 19.5117 5.1875V0.230469H4.74609C2.1291 0.230469 0 2.35957 0 4.97656V29.0234C0 31.6404 2.1291 33.7695 4.74609 33.7695H19.5117V28.8125C19.5117 27.9388 20.22 27.2305 21.0938 27.2305C21.9675 27.2305 22.6758 27.9388 22.6758 28.8125V33.7695H49.2539C51.8709 33.7695 54 31.6404 54 29.0234V4.97656C54 2.35957 51.8709 0.230469 49.2539 0.230469ZM13.5 24.4883H8.4375C7.5638 24.4883 6.85547 23.78 6.85547 22.9062C6.85547 22.0325 7.5638 21.3242 8.4375 21.3242H13.5C14.3737 21.3242 15.082 22.0325 15.082 22.9062C15.082 23.78 14.3737 24.4883 13.5 24.4883ZM13.5 17.7383H8.4375C7.5638 17.7383 6.85547 17.03 6.85547 16.1562C6.85547 15.2825 7.5638 14.5742 8.4375 14.5742H13.5C14.3737 14.5742 15.082 15.2825 15.082 16.1562C15.082 17.03 14.3737 17.7383 13.5 17.7383ZM13.5 10.9883H8.4375C7.5638 10.9883 6.85547 10.28 6.85547 9.40625C6.85547 8.53255 7.5638 7.82422 8.4375 7.82422H13.5C14.3737 7.82422 15.082 8.53255 15.082 9.40625C15.082 10.28 14.3737 10.9883 13.5 10.9883ZM22.6758 22.0625C22.6758 22.9362 21.9675 23.6445 21.0938 23.6445C20.22 23.6445 19.5117 22.9362 19.5117 22.0625V20.375C19.5117 19.5013 20.22 18.793 21.0938 18.793C21.9675 18.793 22.6758 19.5013 22.6758 20.375V22.0625ZM22.6758 13.625C22.6758 14.4987 21.9675 15.207 21.0938 15.207C20.22 15.207 19.5117 14.4987 19.5117 13.625V11.9375C19.5117 11.0638 20.22 10.3555 21.0938 10.3555C21.9675 10.3555 22.6758 11.0638 22.6758 11.9375V13.625ZM45.8373 10.5249L43.3023 13.0599L44.6469 20.7898C44.7967 21.6505 44.2202 22.4698 43.3594 22.6196C43.2692 22.6353 43.1779 22.6432 43.0864 22.6433C42.3316 22.6433 41.6634 22.1012 41.5296 21.332L40.5666 15.7958L35.5941 20.7682L36.1884 24.3338C36.3321 25.1956 35.7499 26.0106 34.888 26.1544C34.8014 26.1688 34.7138 26.1761 34.626 26.1761C33.8666 26.1761 33.1964 25.6279 33.0675 24.8539L32.5251 21.5999L29.2711 21.0575C28.4092 20.9138 27.827 20.0987 27.9706 19.2369C28.1142 18.375 28.9304 17.7932 29.7912 17.9365L33.3568 18.5308L38.3578 13.5298L32.6576 12.4738C31.7984 12.3147 31.2311 11.4892 31.3901 10.6301C31.5494 9.77107 32.3741 9.20417 33.2338 9.36269L41.0727 10.8149L43.5999 8.28765C44.2177 7.66992 45.2194 7.66992 45.8372 8.28765C46.4553 8.90538 46.4553 9.90712 45.8373 10.5249Z" fill="#0177FC"/>
</svg>
