<svg width="460" height="259" viewBox="0 0 460 259" fill="none" xmlns="http://www.w3.org/2000/svg">
<path d="M8.74912 67.5258H20.8634L21.9851 68.6475L24.2285 71.3396L26.6962 74.4803L29.6126 78.0698L31.856 80.9861L34.3237 84.1269L37.2401 87.7163L40.1565 91.5301L42.1755 93.9978L43.9702 96.2412L48.9057 102.523L53.3925 108.131L55.6358 111.047L58.5522 114.637L61.4686 118.451L64.385 122.04L66.8528 125.181L68.6475 127.424L73.5829 133.706L76.4993 137.295L79.4157 141.109L82.3321 144.698L84.7998 147.839L86.8189 150.307L87.7162 150.755L87.9406 67.7502L88.1649 67.5258H95.1194V183.509H93.1003L91.9786 182.836L89.5109 179.695L86.5945 176.106L84.7998 173.862L82.3321 170.721L79.4157 167.132L76.948 163.991L74.9289 161.524L72.4612 158.383L69.5448 154.793L67.0771 151.653L64.1607 148.063L62.366 145.82L59.8983 142.679L56.9819 139.09L54.5141 135.949L52.4951 133.481L50.2517 130.565L48.0083 127.873L46.2136 125.629L41.2782 119.348L38.3618 115.759L35.8941 112.618L33.875 110.15L30.9586 106.561L28.0422 102.747L25.7988 100.055L23.3311 96.9142L20.4147 93.3248L18.62 91.0814L16.601 88.838L15.7036 88.3893V181.49L15.2549 181.714H8.74912L8.52478 181.49V67.7502L8.74912 67.5258Z" fill="white"/>
<path d="M308.017 64.6095L309.138 64.8338L309.811 65.9555L312.728 72.4613L316.317 80.7618L319.682 88.3893L323.496 97.1385L331.572 115.534L334.713 122.713L338.078 130.341L340.994 137.071L345.032 146.269L347.949 152.999L352.211 162.645L354.679 168.254L357.82 175.433L360.063 180.592L360.512 181.714H342.34L341.892 181.49L338.751 173.862L336.507 168.478L332.469 158.832L329.777 152.326L329.329 150.755L277.058 150.531L276.833 151.877L273.468 160.178L269.879 168.927L267.187 175.433L264.719 181.49L264.495 181.714H255.746L255.97 180.817L258.886 174.311L261.803 167.581L265.617 158.832L268.982 151.204L271.449 145.596L274.366 138.865L276.385 134.154L277.731 131.238L279.526 126.976L280.872 124.059L282.442 120.47L285.134 114.188L286.48 111.272L290.294 102.523L292.986 96.4655L295.902 89.7353L298.594 83.6782L301.286 77.3967L305.549 67.7502L306.67 65.0581L308.017 64.6095ZM303.305 88.3893L302.184 90.184L298.819 98.4845L295.229 107.009L292.088 114.637L287.826 124.956L280.199 143.352V144.25H326.188L325.515 142.006L322.374 134.379L319.682 127.649L316.99 121.143L311.157 106.785L307.568 98.0359L303.754 88.6137L303.305 88.3893Z" fill="white"/>
<path d="M147.39 101.85H155.691L159.953 102.523L163.991 103.644L168.478 105.663L172.067 107.907L175.208 110.599L177.676 113.067L180.144 116.207L182.163 119.797L183.733 123.162L185.079 127.424L185.976 131.687L186.425 134.827L186.649 137.968V142.679L186.201 147.839L185.303 152.999L183.957 157.486L182.611 160.851L180.817 164.44L179.022 167.356L176.554 170.497L173.414 173.638L169.375 176.554L165.786 178.573L161.075 180.817L157.71 181.938L152.999 183.06L149.634 183.509L144.474 183.733L138.417 183.284L133.93 182.163L131.014 181.041L127.424 179.246L124.956 177.676L122.713 175.881L119.572 172.965L117.553 170.497L115.31 167.132L113.515 163.543L111.945 159.28L110.823 154.345L110.15 148.961V140.66L111.047 134.154L112.393 128.77L114.188 124.283L116.88 119.124L119.797 115.086L122.713 112.169L126.302 109.477L130.789 106.785L135.052 104.766L139.763 103.196L143.801 102.298L147.39 101.85ZM145.147 108.131L141.557 109.926L138.865 111.72L135.725 114.413L133.033 117.553L130.565 121.591L128.995 124.956L127.424 129.668L126.527 133.481L125.854 137.744L125.629 140.884V148.288L126.078 152.999L127.2 158.607L128.995 163.991L130.789 167.805L132.36 170.273L134.154 172.516L135.725 174.087L138.865 176.106L142.23 177.452L145.82 178.125H150.082L153.223 177.452L156.139 176.33L158.607 174.76L161.524 172.068L163.543 169.6L165.562 166.683L167.356 163.318L169.151 158.607L170.273 153.672L170.721 150.755L170.946 147.615V140.211L170.497 135.052L169.824 130.565L168.702 125.854L167.356 122.04L165.562 118.226L163.318 115.086L162.421 113.964L159.953 111.945L157.71 110.599L154.12 109.028L151.428 108.355L149.634 108.131H145.147Z" fill="white"/>
<path d="M188.668 103.869H203.475L208.41 116.207L212 125.405L214.692 132.135L218.281 141.333L223.441 154.345L226.806 162.87L227.03 163.318H227.928L229.498 159.28L233.087 149.634L240.491 129.892L244.08 120.245L250.137 104.093L250.362 103.869H256.419L255.97 104.99L253.278 111.945L248.567 123.835L246.548 128.77L245.202 132.36L242.061 140.211L239.593 146.493L232.863 163.543L228.152 175.433L225.011 183.284L224.114 184.182L222.544 183.733L221.871 182.611L219.178 176.33L216.262 169.375L213.121 161.972L208.859 151.877L205.718 144.474L202.353 136.398L198.539 127.424L195.623 120.47L193.155 114.637L189.79 106.561L188.668 103.869Z" fill="white"/>
<path d="M442.844 100.504L443.966 100.728L445.312 110.15V111.721L439.927 112.618L436.338 113.74L432.973 115.086L429.159 116.88L424.224 119.797L419.961 122.937L417.942 124.508L417.718 181.49L416.148 181.714H403.809V103.869H413.456L414.577 107.907L417.269 118.002L417.942 117.778L419.961 114.861L423.102 111.496L424.672 109.926L427.14 107.907L430.954 105.215L436.114 102.523L440.825 100.952L442.844 100.504Z" fill="white"/>
<path d="M370.607 103.869H384.292L384.516 104.093V181.49L376.888 181.714H370.607L370.383 152.774V127.873L370.607 103.869Z" fill="white"/>
<path d="M375.318 70.8909H379.132L381.375 71.5639L383.394 73.1343L384.965 74.929L385.862 76.7237L386.086 77.6211V80.9862L385.189 83.4539L383.843 85.4729L382.272 86.819L380.029 87.9406L378.459 88.3893H376.44L374.196 87.7163L371.953 86.3703L370.383 84.5756L369.037 81.8835L368.812 80.9862V77.8454L369.71 75.3777L370.607 74.0317L371.729 72.91L373.075 71.7883L374.421 71.1153L375.318 70.8909Z" fill="white"/>
</svg>
